<svg width="841" height="422" xmlns="http://www.w3.org/2000/svg">
 <defs>
  <linearGradient y2="841.9678" y1="841.9678" x2="-86.0285" x1="-87.0285" gradientUnits="userSpaceOnUse" gradientTransform="matrix(-344.76251220703125,-595.70947265625,-597.8342895507812,343.53717041015625,473980.125,-340524.375)" id="svg_1">
   <stop stop-color="#080808" offset="0"/>
   <stop stop-color="#242424" offset="1"/>
  </linearGradient>
 </defs>
 <g>
  <title>Layer 1</title>
  <g stroke-width="0" transform="rotate(90, 421.05, 210.45)">
   <g fill-rule="evenodd" clip-rule="evenodd">
    <path fill="url(#svg_1)" stroke-miterlimit="3.1571" stroke-linejoin="round" stroke-linecap="round" stroke-width="0.2736" stroke="#000" d="m210,-210l421.89954,0l0,840.89999l-421.89954,0l0,-840.89999z"/>
    <path fill="#242424" d="m357.24886,-58.18054l-147.24885,-151.81945l130.30872,0l16.94013,151.81945z"/>
    <path fill="#252525" d="m357.24886,-58.18054l-147.24885,-151.81945l0,106.57326l147.24885,45.24619z"/>
    <path fill="#222" d="m357.24886,-58.18054l0,62.62552l-147.24885,-80.40438l0,-27.46734l147.24885,45.24619z"/>
    <path fill="#242424" d="m210,58.0812l147.24885,-53.63622l-147.24885,-80.40438l0,134.0406z"/>
    <path fill="#1f1f1f" d="m210,58.0812l147.24885,-53.63622l-48.01375,206.05496l-99.2351,-152.41874z"/>
    <path fill="#1f1f1f" d="m210,58.0812l0,200.76125l8.41995,2.09751l90.71492,-50.44002l-99.13486,-152.41874z"/>
    <path fill="#1a1a1a" d="m243.78003,317.67249l-25.25984,-56.73253l90.71492,-50.44002l-65.45507,107.17255z"/>
    <path fill="#181818" d="m243.78003,317.67249l204.68493,18.97743l-139.22986,-126.14998l-65.45507,107.17255z"/>
    <path fill="#161616" d="m243.78003,317.67249l204.68493,18.97743l-124.49495,84.09999l-80.18998,-103.07742z"/>
    <path fill="#191919" d="m243.78003,317.67249l-33.78003,0l0,189.17503l113.97001,-86.19749l-80.18998,-102.97754z"/>
    <path fill="#161616" d="m346.1225,521.62994l-102.34246,109.27005l-33.78003,0l0,-124.05248l113.97001,-86.19749l22.15248,100.97991z"/>
    <path fill="#111" d="m346.1225,521.62994l138.22748,-14.68254l-35.88502,-170.29748l-124.49495,84.09999l22.15248,100.88003z"/>
    <path fill="#0e0e0e" d="m346.1225,521.62994l138.22748,-14.68254l-16.94013,123.95259l-121.28735,0l0,-109.27005z"/>
    <path fill="#080808" d="m631.99978,588.85l-147.6498,-82.00248l-16.94013,124.05248l164.58994,0l0,-42.04999z"/>
    <path fill="#070707" d="m631.99978,588.85l-147.6498,-82.00248l147.6498,-128.24749l0,210.24997z"/>
    <path fill="#121212" d="m346.1225,521.62994l-102.34246,109.27005l102.34246,0l0,-109.27005z"/>
    <path fill="#151515" d="m496.9799,185.22999l-48.51494,151.41993l-139.22986,-126.14998l187.74479,-25.26995z"/>
    <path fill="#111" d="m496.9799,185.22999l-48.51494,151.41993l160.37996,-126.14998l-111.86502,-25.26995z"/>
    <path fill="#0d0d0d" d="m484.34998,506.84752l-35.88502,-170.1976l160.37996,-126.14998l23.25509,37.85498l0,130.34499l-147.75004,128.14761z"/>
    <path fill="#1d1d1d" d="m243.78003,317.67249l-25.25984,-56.73253l-8.41995,-2.09751l0,58.83004l33.67979,0z"/>
    <path fill="#1e1e1e" d="m357.24886,-58.18054l133.81703,-17.77886l-99.53581,-134.0406l-51.12111,0l16.8399,151.81945z"/>
    <path fill="#1b1b1b" d="m357.24886,-58.18054l133.81703,-17.77886l-133.81703,80.40438l0,-62.62552z"/>
    <path fill="#181818" d="m501.18987,92.73998l-10.12399,-168.69938l-133.81703,80.40438l143.94102,88.295z"/>
    <path fill="#191919" d="m501.18987,92.73998l-191.95477,117.75996l48.01375,-206.05496l143.94102,88.295z"/>
    <path fill="#161616" d="m501.18987,92.73998l-191.95477,117.75996l187.74479,-25.26995l4.20997,-92.49001z"/>
    <path fill="#111" d="m501.18987,92.73998l107.55481,117.75996l-111.86502,-25.26995l4.31021,-92.49001z"/>
    <path fill="#101010" d="m501.18987,92.73998l107.55481,117.75996l23.25509,-40.45189l0,-65.72184l-130.80991,-11.58622z"/>
    <path fill-opacity="0.95" fill="#0c0c0c" d="m631.99978,248.35492l-23.25509,-37.85498l23.25509,-40.45189l0,78.30688z"/>
    <path fill="#1c1c1c" d="m536.5737,-210l-45.50781,134.0406l-99.53581,-134.0406l145.04363,0z"/>
    <path fill="#151515" d="m536.5737,-210l-45.50781,134.0406l140.93389,-23.97149l0,-110.0691l-95.42608,0z"/>
    <path fill="#111" d="m631.99978,74.36183l-140.93389,-150.32124l140.93389,-23.97149l0,174.29273z"/>
    <path fill="#131313" d="m631.99978,74.36183l-140.93389,-150.32124l10.12399,168.69938l130.80991,11.58622l0,-29.96437z"/>
   </g>
  </g>
 </g>
</svg>